<svg width="500" height="500" viewBox="0 0 500 500" fill="none" xmlns="http://www.w3.org/2000/svg">
<path d="M186.157 396.911L185.908 438.745C185.855 447.607 176.143 453.013 168.465 448.315L149.083 435.704L144.445 433.05C144.114 432.86 117.305 417.143 59.0524 382.988L54.4255 380.297C49.8638 377.627 46.1311 373.823 43.5632 369.244C41.0237 364.699 39.7188 359.552 39.7995 354.446L40.3988 250.262L41.0214 145.911C41.0544 140.371 42.6508 134.972 45.5905 130.34C48.4988 125.692 52.6926 121.884 57.0403 119.814L141.85 71.4629L146.481 68.7883C148.022 67.9177 148.022 67.9177 151.154 66.1578L232.386 19.8943L237.125 17.1241C242.07 14.3143 247.652 12.997 253.301 13.294C258.786 13.5931 264.184 15.4241 267.96 18.1462L351.906 67.338L356.558 70C356.895 70.1976 384.893 86.6128 441.893 120.031L446.547 122.731C451.107 125.407 454.83 129.206 457.397 133.785C459.93 138.317 461.235 143.464 461.161 148.585L460.613 243.454C460.562 252.222 451.036 257.644 443.472 253.21L407.252 231.981C403.745 229.925 401.6 226.155 401.624 222.09L401.964 165.088L328.219 121.847C327.582 121.526 326.145 120.695 322.157 118.351L251.517 76.8929L177.512 119.056C176.802 119.517 176.802 119.517 176.378 119.784C176.206 119.888 174.46 120.89 171.139 122.791L100.039 163.291L98.9966 337.938L172.777 381.195C173.249 381.435 174.264 382.023 178.968 384.777L180.485 386.141L181.739 387.838C184.528 389.995 186.178 393.343 186.157 396.911ZM401.215 290.666C401.267 281.907 410.778 276.486 418.341 280.903L454.561 302.057C458.077 304.11 460.229 307.885 460.204 311.956L459.998 346.62C459.98 349.59 458.802 352.436 456.71 354.555L439.472 371.923C432.997 380.099 423.544 383.312 415.155 378.412L280.569 299.303L279.653 447.048C280.095 452.594 277.773 458.004 273.401 461.485C269.121 464.903 269.121 464.903 248.374 481.461C245.263 484.31 241.201 485.885 236.962 485.86C227.721 485.805 220.276 478.264 220.331 469.021L221.572 264.715L198.892 251.423L187.346 257.971C186.795 258.352 186.99 258.24 175.337 264.876C167.123 269.616 156.831 267.021 152.171 258.871C151.064 256.931 151.064 256.931 145.825 247.753L139.536 236.754C134.824 228.511 137.427 218.238 145.581 213.586C147.575 212.457 147.575 212.457 156.796 207.236L184.604 191.447L189.616 188.656C194.963 184.899 202.021 184.596 207.719 187.931L214.008 191.646L401.152 301.301L401.215 290.666Z" fill="#13B7C1"/>
</svg>
